<svg width="32" height="32" viewBox="0 0 32 32" fill="none" xmlns="http://www.w3.org/2000/svg">
<mask id="path-1-inside-1_4890_52286" fill="white">
<path fillRule="evenodd" clipRule="evenodd" d="M32 16L31.9995 16.7426L31.9979 17.1788L31.9952 17.5446L31.9915 17.871L31.9867 18.1709L31.9808 18.4512L31.9739 18.7161L31.9659 18.9685L31.9568 19.2104L31.9467 19.4433L31.9355 19.6683L31.9232 19.8864L31.9099 20.0983L31.8955 20.3045L31.88 20.5057L31.8635 20.7021L31.8459 20.8943L31.8272 21.0824L31.8075 21.2668L31.7867 21.4476L31.7648 21.6252L31.7419 21.7996L31.7179 21.971L31.6928 22.1396L31.6667 22.3056L31.6395 22.4689L31.6112 22.6298L31.5818 22.7884L31.5514 22.9446L31.52 23.0987L31.4874 23.2506L31.4538 23.4005L31.4191 23.5484L31.3834 23.6944L31.3466 23.8384L31.3087 23.9807L31.2698 24.1212L31.2297 24.2599L31.1887 24.3969L31.1465 24.5323L31.1033 24.666L31.059 24.7981L31.0136 24.9287L30.9672 25.0577L30.9197 25.1852L30.8711 25.3113L30.8214 25.4358L30.7707 25.5589L30.7189 25.6806L30.666 25.8009L30.6121 25.9198L30.557 26.0374L30.5009 26.1536L30.4437 26.2685L30.3855 26.382L30.3261 26.4942L30.2657 26.6052L30.2042 26.7149L30.1416 26.8233L30.078 26.9304L30.0132 27.0363L29.9474 27.1409L29.8805 27.2444L29.8125 27.3466L29.7433 27.4476L29.6731 27.5473L29.6019 27.6459L29.5295 27.7433L29.456 27.8396L29.3814 27.9346L29.3057 28.0285L29.2289 28.1212L29.151 28.2128L29.072 28.3032L28.9918 28.3924L28.9106 28.4805L28.8282 28.5675L28.7447 28.6533L28.6601 28.738L28.5744 28.8216L28.4875 28.9041L28.3995 28.9854L28.3103 29.0656L28.22 29.1447L28.1285 29.2227L28.0359 29.2996L27.9421 29.3754L27.8472 29.4501L27.751 29.5237L27.6537 29.5961L27.5552 29.6675L27.4555 29.7378L27.3546 29.807L27.2525 29.8751L27.1492 29.9421L27.0447 30.008L26.9389 30.0729L26.8318 30.1366L26.7235 30.1993L26.614 30.2609L26.5031 30.3214L26.391 30.3808L26.2775 30.4391L26.1628 30.4964L26.0467 30.5526L25.9293 30.6077L25.8105 30.6618L25.6903 30.7147L25.5687 30.7666L25.4457 30.8174L25.3212 30.8672L25.1953 30.9158L25.0679 30.9634L24.939 31.01L24.8086 31.0554L24.6766 31.0998L24.543 31.1431L24.4077 31.1853L24.2709 31.2265L24.1323 31.2666L23.9919 31.3057L23.8498 31.3436L23.7059 31.3805L23.5601 31.4163L23.4124 31.4511L23.2626 31.4848L23.1109 31.5174L22.957 31.549L22.8009 31.5795L22.6425 31.6089L22.4818 31.6372L22.3187 31.6645L22.1529 31.6908L21.9845 31.7159L21.8133 31.74L21.6392 31.763L21.4619 31.785L21.2813 31.8059L21.0972 31.8257L20.9094 31.8444L20.7176 31.8621L20.5215 31.8787L20.3207 31.8943L20.1149 31.9088L19.9035 31.9222L19.6859 31.9345L19.4615 31.9458L19.2292 31.956L18.9881 31.9652L18.7366 31.9733L18.4728 31.9803L18.1939 31.9862L17.8958 31.9911L17.5718 31.9949L17.2099 31.9977L16.7816 31.9994L16.1375 32L15.2973 31.9996L14.8527 31.998L14.4828 31.9955L14.1539 31.9918L13.8522 31.9871L13.5705 31.9813L13.3045 31.9745L13.0512 31.9665L12.8085 31.9576L12.575 31.9475L12.3494 31.9364L12.1307 31.9242L11.9184 31.911L11.7117 31.8967L11.5101 31.8813L11.3133 31.8648L11.1208 31.8473L10.9324 31.8287L10.7478 31.8091L10.5666 31.7884L10.3889 31.7666L10.2142 31.7437L10.0425 31.7198L9.87368 31.6948L9.70754 31.6688L9.54397 31.6417L9.38288 31.6135L9.22416 31.5842L9.06772 31.5539L8.91349 31.5225L8.76139 31.4901L8.61134 31.4565L8.46329 31.422L8.31718 31.3863L8.17295 31.3496L8.03056 31.3118L7.88995 31.2729L7.75109 31.233L7.61394 31.192L7.47845 31.1499L7.34459 31.1068L7.21233 31.0625L7.08164 31.0173L6.9525 30.9709L6.82486 30.9235L6.69872 30.875L6.57404 30.8254L6.45081 30.7748L6.32899 30.7231L6.20858 30.6703L6.08956 30.6164L5.9719 30.5615L5.8556 30.5054L5.74063 30.4483L5.62698 30.3902L5.51464 30.3309L5.40359 30.2706L5.29382 30.2092L5.18532 30.1467L5.07808 30.0831L4.97209 30.0184L4.86734 29.9527L4.76382 29.8858L4.66152 29.8179L4.56043 29.7489L4.46055 29.6788L4.36186 29.6076L4.26436 29.5353L4.16804 29.4619L4.0729 29.3874L3.97893 29.3118L3.88612 29.2351L3.79447 29.1572L3.70398 29.0783L3.61463 28.9983L3.52643 28.9171L3.43937 28.8348L3.35344 28.7514L3.26864 28.6669L3.18497 28.5813L3.10243 28.4945L3.021 28.4065L2.9407 28.3175L2.8615 28.2272L2.78342 28.1359L2.70645 28.0433L2.63058 27.9496L2.55582 27.8548L2.48215 27.7587L2.40959 27.6615L2.33812 27.5631L2.26775 27.4635L2.19847 27.3627L2.13028 27.2607L2.06318 27.1575L1.99717 27.053L1.93225 26.9473L1.86841 26.8404L1.80565 26.7322L1.74398 26.6227L1.68339 26.512L1.62388 26.4L1.56545 26.2866L1.50809 26.172L1.45182 26.056L1.39662 25.9387L1.3425 25.82L1.28945 25.6999L1.23748 25.5784L1.18658 25.4555L1.13675 25.3312L1.088 25.2054L1.04032 25.0781L0.993706 24.9493L0.948167 24.819L0.903699 24.6871L0.860301 24.5537L0.817974 24.4186L0.776716 24.2818L0.736527 24.1434L0.697407 24.0032L0.659356 23.8612L0.622374 23.7174L0.58646 23.5718L0.551615 23.4242L0.517837 23.2746L0.485127 23.123L0.453485 22.9693L0.42291 22.8134L0.393403 22.6552L0.364963 22.4947L0.337591 22.3318L0.311285 22.1662L0.286047 21.998L0.261876 21.8271L0.238771 21.6531L0.216734 21.4761L0.195763 21.2958L0.175859 21.112L0.157022 20.9245L0.139252 20.733L0.122549 20.5373L0.106912 20.3369L0.0923421 20.1315L0.0788388 19.9205L0.0664022 19.7035L0.0550322 19.4796L0.044729 19.248L0.0354924 19.0077L0.0273225 18.7571L0.0202193 18.4943L0.0141828 18.2167L0.00921287 17.9203L0.00530965 17.5988L0.0024731 17.2406L0.000703217 16.8195L0 16.2182L0.00036345 15.3384L0.00179357 14.8846L0.00429035 14.5105L0.00785381 14.1789L0.0124839 13.8754L0.0181807 13.5923L0.0249442 13.3252L0.0327743 13.0709L0.0416711 12.8275L0.0516346 12.5933L0.0626647 12.367L0.0747615 12.1479L0.0879251 11.9351L0.102155 11.728L0.117452 11.526L0.133816 11.3288L0.151246 11.136L0.169743 10.9473L0.189307 10.7623L0.209938 10.5809L0.231636 10.4029L0.2544 10.228L0.278232 10.0561L0.30313 9.88702L0.329096 9.72066L0.356128 9.5569L0.384228 9.39561L0.413396 9.2367L0.44363 9.08009L0.474932 8.92568L0.507302 8.77341L0.540739 8.6232L0.575245 8.475L0.610819 8.32873L0.64746 8.18436L0.685171 8.04182L0.72395 7.90107L0.763798 7.76207L0.804716 7.62478L0.846703 7.48916L0.889759 7.35518L0.933887 7.22279L0.979084 7.09198L1.02535 6.96271L1.07269 6.83496L1.12111 6.7087L1.17059 6.5839L1.22115 6.46055L1.27278 6.33863L1.32548 6.21811L1.37926 6.09898L1.43412 5.98121L1.49005 5.8648L1.54706 5.74972L1.60515 5.63597L1.66432 5.52352L1.72456 5.41237L1.78589 5.3025L1.8483 5.1939L1.91179 5.08656L1.97637 4.98048L2.04204 4.87563L2.10879 4.77201L2.17663 4.66961L2.24556 4.56842L2.31559 4.46844L2.3867 4.36966L2.45892 4.27206L2.53223 4.17565L2.60665 4.08042L2.68216 3.98635L2.75878 3.89345L2.83651 3.80171L2.91535 3.71113L2.9953 3.62169L3.07637 3.5334L3.15856 3.44624L3.24187 3.36023L3.32631 3.27534L3.41187 3.19158L3.49857 3.10895L3.58641 3.02743L3.67539 2.94704L3.76552 2.86775L3.8568 2.78958L3.94924 2.71252L4.04284 2.63657L4.13761 2.56171L4.23355 2.48796L4.33067 2.41531L4.42898 2.34376L4.52848 2.2733L4.62919 2.20393L4.7311 2.13565L4.83424 2.06847L4.93859 2.00237L5.04419 1.93736L5.15103 1.87344L5.25912 1.81059L5.36848 1.74884L5.47912 1.68816L5.59105 1.62856L5.70428 1.57004L5.81883 1.51261L5.93471 1.45625L6.05194 1.40096L6.17052 1.34675L6.29049 1.29362L6.41185 1.24156L6.53463 1.19058L6.65885 1.14066L6.78452 1.09182L6.91168 1.04406L7.04034 0.997362L7.17053 0.951738L7.30229 0.907185L7.43563 0.863702L7.5706 0.821289L7.70722 0.779946L7.84553 0.739672L7.98558 0.700467L8.1274 0.662331L8.27104 0.625264L8.41654 0.589265L8.56397 0.554334L8.71337 0.520471L8.86481 0.487676L9.01836 0.455949L9.17409 0.425289L9.33207 0.395697L9.4924 0.367172L9.65516 0.339715L9.82047 0.313324L9.98844 0.288001L10.1592 0.263745L10.3329 0.240555L10.5097 0.218433L10.6897 0.197377L10.8732 0.177389L11.0604 0.158467L11.2516 0.140611L11.447 0.123823L11.647 0.108101L11.852 0.0934464L12.0625 0.0798581L12.279 0.0673366L12.5023 0.0558817L12.7332 0.0454935L12.9728 0.036172L13.2225 0.0279171L13.4842 0.020729L13.7605 0.0146075L14.0552 0.00955264L14.3744 0.00556448L14.7291 0.00264299L15.1433 0.000788159L15.7141 0L16.6191 0.000278509L17.083 0.00162369L17.4615 0.00403553L17.7958 0.00751404L18.1013 0.0120592L18.3858 0.0176711L18.6541 0.0243496L18.9092 0.0320948L19.1535 0.0409066L19.3884 0.0507852L19.6152 0.0617304L19.8349 0.0737423L20.0482 0.0868209L20.2557 0.100966L20.4581 0.116178L20.6556 0.132457L20.8488 0.149802L21.0378 0.168215L21.2231 0.187694L21.4047 0.208239L21.583 0.229852L21.7582 0.252532L21.9303 0.276278L22.0996 0.301092L22.2662 0.326972L22.4301 0.35392L22.5916 0.381935L22.7507 0.411017L22.9075 0.441167L23.0621 0.472384L23.2145 0.504669L23.3649 0.538021L23.5132 0.572442L23.6597 0.60793L23.8042 0.644487L23.9469 0.682112L24.0878 0.720806L24.2269 0.760569L24.3643 0.801402L24.5001 0.843304L24.6342 0.886275L24.7667 0.930317L24.8976 0.97543L25.027 1.02161L25.1549 1.06887L25.2813 1.11719L25.4062 1.16659L25.5296 1.21707L25.6517 1.26861L25.7723 1.32123L25.8916 1.37493L26.0094 1.4297L26.126 1.48554L26.2411 1.54247L26.355 1.60047L26.4675 1.65955L26.5788 1.71971L26.6888 1.78095L26.7975 1.84328L26.9049 1.90668L27.0111 1.97117L27.116 2.03675L27.2198 2.10342L27.3223 2.17117L27.4235 2.24002L27.5236 2.30995L27.6225 2.38099L27.7202 2.45311L27.8167 2.52634L27.912 2.60066L28.0062 2.67609L28.0992 2.75262L28.191 2.83027L28.2817 2.90902L28.3712 2.98888L28.4596 3.06986L28.5468 3.15196L28.6329 3.23518L28.7179 3.31953L28.8018 3.405L28.8845 3.49161L28.9661 3.57936L29.0466 3.66825L29.1259 3.75829L29.2042 3.84948L29.2814 3.94182L29.3574 4.03533L29.4323 4.13L29.5062 4.22585L29.5789 4.32288L29.6506 4.42109L29.7211 4.5205L29.7906 4.62111L29.8589 4.72293L29.9262 4.82596L29.9924 4.93022L30.0575 5.03572L30.1215 5.14246L30.1844 5.25045L30.2463 5.35971L30.307 5.47025L30.3667 5.58208L30.4253 5.69521L30.4828 5.80965L30.5393 5.92542L30.5946 6.04254L30.6489 6.16102L30.7022 6.28087L30.7543 6.40212L30.8054 6.52479L30.8554 6.64889L30.9043 6.77445L30.9522 6.90148L30.9989 7.03003L31.0446 7.1601L31.0893 7.29173L31.1328 7.42494L31.1753 7.55978L31.2168 7.69627L31.2571 7.83444L31.2964 7.97435L31.3346 8.11603L31.3718 8.25952L31.4079 8.40488L31.4429 8.55215L31.4768 8.70139L31.5097 8.85267L31.5415 9.00604L31.5723 9.16159L31.602 9.31939L31.6306 9.47953L31.6581 9.6421L31.6846 9.8072L31.71 9.97496L31.7343 10.1455L31.7576 10.3189L31.7798 10.4955L31.801 10.6752L31.821 10.8584L31.84 11.0453L31.858 11.2362L31.8749 11.4312L31.8907 11.6308L31.9054 11.8354L31.9191 12.0455L31.9317 12.2615L31.9432 12.4842L31.9537 12.7145L31.9631 12.9534L31.9714 13.2022L31.9787 13.4629L31.9849 13.7379L31.9901 14.0309L31.9941 14.3479L31.9971 14.6991L31.9991 15.107L31.9999 15.6536L32 16Z"/>
</mask>
<path fillRule="evenodd" clipRule="evenodd" d="M32 16L31.9995 16.7426L31.9979 17.1788L31.9952 17.5446L31.9915 17.871L31.9867 18.1709L31.9808 18.4512L31.9739 18.7161L31.9659 18.9685L31.9568 19.2104L31.9467 19.4433L31.9355 19.6683L31.9232 19.8864L31.9099 20.0983L31.8955 20.3045L31.88 20.5057L31.8635 20.7021L31.8459 20.8943L31.8272 21.0824L31.8075 21.2668L31.7867 21.4476L31.7648 21.6252L31.7419 21.7996L31.7179 21.971L31.6928 22.1396L31.6667 22.3056L31.6395 22.4689L31.6112 22.6298L31.5818 22.7884L31.5514 22.9446L31.52 23.0987L31.4874 23.2506L31.4538 23.4005L31.4191 23.5484L31.3834 23.6944L31.3466 23.8384L31.3087 23.9807L31.2698 24.1212L31.2297 24.2599L31.1887 24.3969L31.1465 24.5323L31.1033 24.666L31.059 24.7981L31.0136 24.9287L30.9672 25.0577L30.9197 25.1852L30.8711 25.3113L30.8214 25.4358L30.7707 25.5589L30.7189 25.6806L30.666 25.8009L30.6121 25.9198L30.557 26.0374L30.5009 26.1536L30.4437 26.2685L30.3855 26.382L30.3261 26.4942L30.2657 26.6052L30.2042 26.7149L30.1416 26.8233L30.078 26.9304L30.0132 27.0363L29.9474 27.1409L29.8805 27.2444L29.8125 27.3466L29.7433 27.4476L29.6731 27.5473L29.6019 27.6459L29.5295 27.7433L29.456 27.8396L29.3814 27.9346L29.3057 28.0285L29.2289 28.1212L29.151 28.2128L29.072 28.3032L28.9918 28.3924L28.9106 28.4805L28.8282 28.5675L28.7447 28.6533L28.6601 28.738L28.5744 28.8216L28.4875 28.9041L28.3995 28.9854L28.3103 29.0656L28.22 29.1447L28.1285 29.2227L28.0359 29.2996L27.9421 29.3754L27.8472 29.4501L27.751 29.5237L27.6537 29.5961L27.5552 29.6675L27.4555 29.7378L27.3546 29.807L27.2525 29.8751L27.1492 29.9421L27.0447 30.008L26.9389 30.0729L26.8318 30.1366L26.7235 30.1993L26.614 30.2609L26.5031 30.3214L26.391 30.3808L26.2775 30.4391L26.1628 30.4964L26.0467 30.5526L25.9293 30.6077L25.8105 30.6618L25.6903 30.7147L25.5687 30.7666L25.4457 30.8174L25.3212 30.8672L25.1953 30.9158L25.0679 30.9634L24.939 31.01L24.8086 31.0554L24.6766 31.0998L24.543 31.1431L24.4077 31.1853L24.2709 31.2265L24.1323 31.2666L23.9919 31.3057L23.8498 31.3436L23.7059 31.3805L23.5601 31.4163L23.4124 31.4511L23.2626 31.4848L23.1109 31.5174L22.957 31.549L22.8009 31.5795L22.6425 31.6089L22.4818 31.6372L22.3187 31.6645L22.1529 31.6908L21.9845 31.7159L21.8133 31.74L21.6392 31.763L21.4619 31.785L21.2813 31.8059L21.0972 31.8257L20.9094 31.8444L20.7176 31.8621L20.5215 31.8787L20.3207 31.8943L20.1149 31.9088L19.9035 31.9222L19.6859 31.9345L19.4615 31.9458L19.2292 31.956L18.9881 31.9652L18.7366 31.9733L18.4728 31.9803L18.1939 31.9862L17.8958 31.9911L17.5718 31.9949L17.2099 31.9977L16.7816 31.9994L16.1375 32L15.2973 31.9996L14.8527 31.998L14.4828 31.9955L14.1539 31.9918L13.8522 31.9871L13.5705 31.9813L13.3045 31.9745L13.0512 31.9665L12.8085 31.9576L12.575 31.9475L12.3494 31.9364L12.1307 31.9242L11.9184 31.911L11.7117 31.8967L11.5101 31.8813L11.3133 31.8648L11.1208 31.8473L10.9324 31.8287L10.7478 31.8091L10.5666 31.7884L10.3889 31.7666L10.2142 31.7437L10.0425 31.7198L9.87368 31.6948L9.70754 31.6688L9.54397 31.6417L9.38288 31.6135L9.22416 31.5842L9.06772 31.5539L8.91349 31.5225L8.76139 31.4901L8.61134 31.4565L8.46329 31.422L8.31718 31.3863L8.17295 31.3496L8.03056 31.3118L7.88995 31.2729L7.75109 31.233L7.61394 31.192L7.47845 31.1499L7.34459 31.1068L7.21233 31.0625L7.08164 31.0173L6.9525 30.9709L6.82486 30.9235L6.69872 30.875L6.57404 30.8254L6.45081 30.7748L6.32899 30.7231L6.20858 30.6703L6.08956 30.6164L5.9719 30.5615L5.8556 30.5054L5.74063 30.4483L5.62698 30.3902L5.51464 30.3309L5.40359 30.2706L5.29382 30.2092L5.18532 30.1467L5.07808 30.0831L4.97209 30.0184L4.86734 29.9527L4.76382 29.8858L4.66152 29.8179L4.56043 29.7489L4.46055 29.6788L4.36186 29.6076L4.26436 29.5353L4.16804 29.4619L4.0729 29.3874L3.97893 29.3118L3.88612 29.2351L3.79447 29.1572L3.70398 29.0783L3.61463 28.9983L3.52643 28.9171L3.43937 28.8348L3.35344 28.7514L3.26864 28.6669L3.18497 28.5813L3.10243 28.4945L3.021 28.4065L2.9407 28.3175L2.8615 28.2272L2.78342 28.1359L2.70645 28.0433L2.63058 27.9496L2.55582 27.8548L2.48215 27.7587L2.40959 27.6615L2.33812 27.5631L2.26775 27.4635L2.19847 27.3627L2.13028 27.2607L2.06318 27.1575L1.99717 27.053L1.93225 26.9473L1.86841 26.8404L1.80565 26.7322L1.74398 26.6227L1.68339 26.512L1.62388 26.4L1.56545 26.2866L1.50809 26.172L1.45182 26.056L1.39662 25.9387L1.3425 25.82L1.28945 25.6999L1.23748 25.5784L1.18658 25.4555L1.13675 25.3312L1.088 25.2054L1.04032 25.0781L0.993706 24.9493L0.948167 24.819L0.903699 24.6871L0.860301 24.5537L0.817974 24.4186L0.776716 24.2818L0.736527 24.1434L0.697407 24.0032L0.659356 23.8612L0.622374 23.7174L0.58646 23.5718L0.551615 23.4242L0.517837 23.2746L0.485127 23.123L0.453485 22.9693L0.42291 22.8134L0.393403 22.6552L0.364963 22.4947L0.337591 22.3318L0.311285 22.1662L0.286047 21.998L0.261876 21.8271L0.238771 21.6531L0.216734 21.4761L0.195763 21.2958L0.175859 21.112L0.157022 20.9245L0.139252 20.733L0.122549 20.5373L0.106912 20.3369L0.0923421 20.1315L0.0788388 19.9205L0.0664022 19.7035L0.0550322 19.4796L0.044729 19.248L0.0354924 19.0077L0.0273225 18.7571L0.0202193 18.4943L0.0141828 18.2167L0.00921287 17.9203L0.00530965 17.5988L0.0024731 17.2406L0.000703217 16.8195L0 16.2182L0.00036345 15.3384L0.00179357 14.8846L0.00429035 14.5105L0.00785381 14.1789L0.0124839 13.8754L0.0181807 13.5923L0.0249442 13.3252L0.0327743 13.0709L0.0416711 12.8275L0.0516346 12.5933L0.0626647 12.367L0.0747615 12.1479L0.0879251 11.9351L0.102155 11.728L0.117452 11.526L0.133816 11.3288L0.151246 11.136L0.169743 10.9473L0.189307 10.7623L0.209938 10.5809L0.231636 10.4029L0.2544 10.228L0.278232 10.0561L0.30313 9.88702L0.329096 9.72066L0.356128 9.5569L0.384228 9.39561L0.413396 9.2367L0.44363 9.08009L0.474932 8.92568L0.507302 8.77341L0.540739 8.6232L0.575245 8.475L0.610819 8.32873L0.64746 8.18436L0.685171 8.04182L0.72395 7.90107L0.763798 7.76207L0.804716 7.62478L0.846703 7.48916L0.889759 7.35518L0.933887 7.22279L0.979084 7.09198L1.02535 6.96271L1.07269 6.83496L1.12111 6.7087L1.17059 6.5839L1.22115 6.46055L1.27278 6.33863L1.32548 6.21811L1.37926 6.09898L1.43412 5.98121L1.49005 5.8648L1.54706 5.74972L1.60515 5.63597L1.66432 5.52352L1.72456 5.41237L1.78589 5.3025L1.8483 5.1939L1.91179 5.08656L1.97637 4.98048L2.04204 4.87563L2.10879 4.77201L2.17663 4.66961L2.24556 4.56842L2.31559 4.46844L2.3867 4.36966L2.45892 4.27206L2.53223 4.17565L2.60665 4.08042L2.68216 3.98635L2.75878 3.89345L2.83651 3.80171L2.91535 3.71113L2.9953 3.62169L3.07637 3.5334L3.15856 3.44624L3.24187 3.36023L3.32631 3.27534L3.41187 3.19158L3.49857 3.10895L3.58641 3.02743L3.67539 2.94704L3.76552 2.86775L3.8568 2.78958L3.94924 2.71252L4.04284 2.63657L4.13761 2.56171L4.23355 2.48796L4.33067 2.41531L4.42898 2.34376L4.52848 2.2733L4.62919 2.20393L4.7311 2.13565L4.83424 2.06847L4.93859 2.00237L5.04419 1.93736L5.15103 1.87344L5.25912 1.81059L5.36848 1.74884L5.47912 1.68816L5.59105 1.62856L5.70428 1.57004L5.81883 1.51261L5.93471 1.45625L6.05194 1.40096L6.17052 1.34675L6.29049 1.29362L6.41185 1.24156L6.53463 1.19058L6.65885 1.14066L6.78452 1.09182L6.91168 1.04406L7.04034 0.997362L7.17053 0.951738L7.30229 0.907185L7.43563 0.863702L7.5706 0.821289L7.70722 0.779946L7.84553 0.739672L7.98558 0.700467L8.1274 0.662331L8.27104 0.625264L8.41654 0.589265L8.56397 0.554334L8.71337 0.520471L8.86481 0.487676L9.01836 0.455949L9.17409 0.425289L9.33207 0.395697L9.4924 0.367172L9.65516 0.339715L9.82047 0.313324L9.98844 0.288001L10.1592 0.263745L10.3329 0.240555L10.5097 0.218433L10.6897 0.197377L10.8732 0.177389L11.0604 0.158467L11.2516 0.140611L11.447 0.123823L11.647 0.108101L11.852 0.0934464L12.0625 0.0798581L12.279 0.0673366L12.5023 0.0558817L12.7332 0.0454935L12.9728 0.036172L13.2225 0.0279171L13.4842 0.020729L13.7605 0.0146075L14.0552 0.00955264L14.3744 0.00556448L14.7291 0.00264299L15.1433 0.000788159L15.7141 0L16.6191 0.000278509L17.083 0.00162369L17.4615 0.00403553L17.7958 0.00751404L18.1013 0.0120592L18.3858 0.0176711L18.6541 0.0243496L18.9092 0.0320948L19.1535 0.0409066L19.3884 0.0507852L19.6152 0.0617304L19.8349 0.0737423L20.0482 0.0868209L20.2557 0.100966L20.4581 0.116178L20.6556 0.132457L20.8488 0.149802L21.0378 0.168215L21.2231 0.187694L21.4047 0.208239L21.583 0.229852L21.7582 0.252532L21.9303 0.276278L22.0996 0.301092L22.2662 0.326972L22.4301 0.35392L22.5916 0.381935L22.7507 0.411017L22.9075 0.441167L23.0621 0.472384L23.2145 0.504669L23.3649 0.538021L23.5132 0.572442L23.6597 0.60793L23.8042 0.644487L23.9469 0.682112L24.0878 0.720806L24.2269 0.760569L24.3643 0.801402L24.5001 0.843304L24.6342 0.886275L24.7667 0.930317L24.8976 0.97543L25.027 1.02161L25.1549 1.06887L25.2813 1.11719L25.4062 1.16659L25.5296 1.21707L25.6517 1.26861L25.7723 1.32123L25.8916 1.37493L26.0094 1.4297L26.126 1.48554L26.2411 1.54247L26.355 1.60047L26.4675 1.65955L26.5788 1.71971L26.6888 1.78095L26.7975 1.84328L26.9049 1.90668L27.0111 1.97117L27.116 2.03675L27.2198 2.10342L27.3223 2.17117L27.4235 2.24002L27.5236 2.30995L27.6225 2.38099L27.7202 2.45311L27.8167 2.52634L27.912 2.60066L28.0062 2.67609L28.0992 2.75262L28.191 2.83027L28.2817 2.90902L28.3712 2.98888L28.4596 3.06986L28.5468 3.15196L28.6329 3.23518L28.7179 3.31953L28.8018 3.405L28.8845 3.49161L28.9661 3.57936L29.0466 3.66825L29.1259 3.75829L29.2042 3.84948L29.2814 3.94182L29.3574 4.03533L29.4323 4.13L29.5062 4.22585L29.5789 4.32288L29.6506 4.42109L29.7211 4.5205L29.7906 4.62111L29.8589 4.72293L29.9262 4.82596L29.9924 4.93022L30.0575 5.03572L30.1215 5.14246L30.1844 5.25045L30.2463 5.35971L30.307 5.47025L30.3667 5.58208L30.4253 5.69521L30.4828 5.80965L30.5393 5.92542L30.5946 6.04254L30.6489 6.16102L30.7022 6.28087L30.7543 6.40212L30.8054 6.52479L30.8554 6.64889L30.9043 6.77445L30.9522 6.90148L30.9989 7.03003L31.0446 7.1601L31.0893 7.29173L31.1328 7.42494L31.1753 7.55978L31.2168 7.69627L31.2571 7.83444L31.2964 7.97435L31.3346 8.11603L31.3718 8.25952L31.4079 8.40488L31.4429 8.55215L31.4768 8.70139L31.5097 8.85267L31.5415 9.00604L31.5723 9.16159L31.602 9.31939L31.6306 9.47953L31.6581 9.6421L31.6846 9.8072L31.71 9.97496L31.7343 10.1455L31.7576 10.3189L31.7798 10.4955L31.801 10.6752L31.821 10.8584L31.84 11.0453L31.858 11.2362L31.8749 11.4312L31.8907 11.6308L31.9054 11.8354L31.9191 12.0455L31.9317 12.2615L31.9432 12.4842L31.9537 12.7145L31.9631 12.9534L31.9714 13.2022L31.9787 13.4629L31.9849 13.7379L31.9901 14.0309L31.9941 14.3479L31.9971 14.6991L31.9991 15.107L31.9999 15.6536L32 16Z" stroke="white" strokeWidth="2" mask="url(#path-1-inside-1_4890_52286)"/>
<path d="M19.6016 9.59961H11.6016C9.20156 9.59961 7.60156 10.7996 7.60156 13.5996V16.4476C7.60156 16.7436 7.90556 16.9276 8.16956 16.8076C8.95356 16.4476 9.85756 16.3116 10.8096 16.4796C12.9136 16.8556 14.4576 18.8076 14.4016 20.9436C14.3936 21.2796 14.3456 21.6076 14.2576 21.9276C14.1936 22.1756 14.3936 22.4076 14.6496 22.4076H19.6016C22.0016 22.4076 23.6016 21.2076 23.6016 18.4076V13.5996C23.6016 10.7996 22.0016 9.59961 19.6016 9.59961ZM15.6016 17.9996C14.4976 17.9996 13.6016 17.1036 13.6016 15.9996C13.6016 14.8956 14.4976 13.9996 15.6016 13.9996C16.7056 13.9996 17.6016 14.8956 17.6016 15.9996C17.6016 17.1036 16.7056 17.9996 15.6016 17.9996ZM21.4016 17.5996C21.4016 17.9276 21.1296 18.1996 20.8016 18.1996C20.4736 18.1996 20.2016 17.9276 20.2016 17.5996V14.3996C20.2016 14.0716 20.4736 13.7996 20.8016 13.7996C21.1296 13.7996 21.4016 14.0716 21.4016 14.3996V17.5996Z" fill="white"/>
<path d="M10.0008 17.5996C9.00078 17.5996 8.09678 18.0716 7.51278 18.7916C7.06478 19.3436 6.80078 20.0396 6.80078 20.7996C6.80078 22.5676 8.24078 23.9996 10.0008 23.9996C11.3928 23.9996 12.5848 23.1116 13.0168 21.8636C13.1368 21.5356 13.2008 21.1756 13.2008 20.7996C13.2008 19.0396 11.7688 17.5996 10.0008 17.5996ZM11.8888 22.1916C11.8728 22.2396 11.8408 22.2876 11.8088 22.3196L11.2328 22.8876C11.1608 22.9676 11.0648 22.9996 10.9608 22.9996C10.8568 22.9996 10.7528 22.9676 10.6808 22.8876C10.5528 22.7676 10.5368 22.5756 10.6168 22.4316H9.00878C8.49678 22.4316 8.08078 22.0156 8.08078 21.4956V21.4156C8.08078 21.1916 8.25678 21.0236 8.47278 21.0236C8.68878 21.0236 8.86478 21.1916 8.86478 21.4156V21.4956C8.86478 21.5836 8.92878 21.6556 9.01678 21.6556H10.6248C10.5448 21.5036 10.5608 21.3196 10.6888 21.1916C10.8408 21.0396 11.0888 21.0396 11.2328 21.1916L11.8088 21.7676C11.8408 21.7996 11.8728 21.8476 11.8968 21.8956C11.9288 21.9836 11.9288 22.0956 11.8888 22.1916ZM11.9208 20.1836C11.9208 20.4076 11.7448 20.5756 11.5288 20.5756C11.3128 20.5756 11.1368 20.4076 11.1368 20.1836V20.1036C11.1368 20.0156 11.0728 19.9436 10.9848 19.9436H9.38478C9.46478 20.0956 9.44878 20.2796 9.32078 20.4076C9.24878 20.4796 9.15278 20.5196 9.04078 20.5196C8.94478 20.5196 8.84078 20.4796 8.76878 20.4076L8.19278 19.8316C8.16078 19.7996 8.12878 19.7516 8.10478 19.7036C8.07278 19.6076 8.07278 19.5036 8.10478 19.4076C8.12878 19.3676 8.15278 19.3116 8.19278 19.2796L8.76878 18.7116C8.92078 18.5516 9.16878 18.5516 9.31278 18.7116C9.44078 18.8316 9.45678 19.0236 9.37678 19.1676H10.9848C11.4968 19.1676 11.9128 19.5836 11.9128 20.1036V20.1836H11.9208Z" fill="white"/>
</svg>
