<svg width="18" height="20" viewBox="0 0 18 20" fill="none" xmlns="http://www.w3.org/2000/svg">
<path fill-rule="evenodd" clip-rule="evenodd" d="M9.00002 3.88867C8.0978 3.88867 7.28036 4.02658 6.54554 4.24702C6.14876 4.36606 5.73068 4.14094 5.61164 3.74418C5.4926 3.34744 5.71778 2.92933 6.1145 2.8103C6.9797 2.55075 7.94222 2.38867 9.00002 2.38867C13.828 2.38867 17.75 6.26836 17.75 11.0687C17.75 15.869 13.828 19.7487 9.00002 19.7487C4.17194 19.7487 0.25 15.869 0.25 11.0687C0.25 9.28336 0.797974 7.61818 1.72822 6.23926C1.95987 5.89588 2.42603 5.80528 2.76941 6.03694C3.11276 6.2686 3.20336 6.73474 2.97173 7.07812C2.20197 8.21914 1.75 9.59404 1.75 11.0687C1.75 15.0284 4.98806 18.2487 9.00002 18.2487C13.0119 18.2487 16.25 15.0284 16.25 11.0687C16.25 7.10902 13.0119 3.88867 9.00002 3.88867Z" fill="#797D77"/>
<path fill-rule="evenodd" clip-rule="evenodd" d="M8.15847 0.368913C8.50593 0.594327 8.60493 1.05877 8.37951 1.40628L7.10913 3.36485L9.08625 4.6375C9.43455 4.86166 9.53511 5.32576 9.31095 5.67406C9.08673 6.02236 8.62263 6.12298 8.27439 5.89876L5.66439 4.21876C5.49675 4.11088 5.37897 3.94066 5.33709 3.74574C5.29515 3.55083 5.33259 3.34725 5.44107 3.17999L7.12107 0.589995C7.34649 0.242481 7.81095 0.143505 8.15847 0.368913Z" fill="#797D77"/>
</svg>
