<svg width="23" height="23" viewBox="0 0 23 23" fill="none" xmlns="http://www.w3.org/2000/svg">
<path fillRule="evenodd" clipRule="evenodd" d="M10 0.248047C4.61522 0.248047 0.25 4.61327 0.25 9.99805C0.25 15.3828 4.61522 19.748 10 19.748C15.3848 19.748 19.75 15.3828 19.75 9.99805C19.75 4.61327 15.3848 0.248047 10 0.248047ZM1.75 9.99805C1.75 5.4417 5.44365 1.74805 10 1.74805C14.5563 1.74805 18.25 5.4417 18.25 9.99805C18.25 14.5543 14.5563 18.248 10 18.248C5.44365 18.248 1.75 14.5543 1.75 9.99805Z" fill="white"/>
<path d="M18.5304 17.4677C18.2375 17.1748 17.7626 17.1748 17.4697 17.4677C17.1768 17.7605 17.1768 18.2354 17.4697 18.5283L21.4696 22.5283C21.7625 22.8212 22.2374 22.8212 22.5303 22.5283C22.8232 22.2354 22.8232 21.7605 22.5303 21.4676L18.5304 17.4677Z" fill="white"/>
</svg>
