<svg width="81" height="80" viewBox="0 0 81 80" fill="none" xmlns="http://www.w3.org/2000/svg">
<mask id="path-1-inside-1_4436_39732" fill="white">
<path fillRule="evenodd" clipRule="evenodd" d="M80.332 40L80.3307 41.8566L80.3267 42.9471L80.32 43.8615L80.3107 44.6776L80.2987 45.4273L80.284 46.128L80.2667 46.7903L80.2467 47.4212L80.224 48.0259L80.1987 48.6081L80.1707 49.1707L80.14 49.7159L80.1067 50.2456L80.0707 50.7613L80.032 51.2642L79.9907 51.7554L79.9467 52.2357L79.9 52.706L79.8507 53.1669L79.7987 53.619L79.744 54.0629L79.6867 54.4989L79.6267 54.9275L79.564 55.3491L79.4987 55.7639L79.4307 56.1723L79.36 56.5746L79.2867 56.9709L79.2106 57.3616L79.132 57.7467L79.0506 58.1266L78.9666 58.5013L78.8799 58.871L78.7905 59.2359L78.6985 59.5961L78.6038 59.9517L78.5064 60.3029L78.4064 60.6497L78.3037 60.9923L78.1983 61.3307L78.0902 61.665L77.9795 61.9953L77.866 62.3217L77.7499 62.6443L77.6312 62.9631L77.5097 63.2781L77.3856 63.5895L77.2588 63.8973L77.1292 64.2016L76.9971 64.5023L76.8622 64.7996L76.7246 65.0935L76.5844 65.384L76.4414 65.6711L76.2958 65.955L76.1474 66.2356L75.9964 66.513L75.8426 66.7871L75.6861 67.0581L75.527 67.326L75.3651 67.5907L75.2005 67.8523L75.0332 68.1109L74.8632 68.3664L74.6904 68.6189L74.5149 68.8684L74.3367 69.1148L74.1557 69.3584L73.972 69.5989L73.7855 69.8365L73.5963 70.0712L73.4043 70.303L73.2095 70.5319L73.012 70.7579L72.8117 70.981L72.6085 71.2013L72.4026 71.4188L72.1939 71.6334L71.9824 71.8451L71.768 72.0541L71.5508 72.2602L71.3307 72.4635L71.1078 72.6641L70.882 72.8619L70.6534 73.0568L70.4218 73.2491L70.1874 73.4385L69.95 73.6252L69.7097 73.8091L69.4664 73.9903L69.2201 74.1688L68.9709 74.3445L68.7187 74.5175L68.4634 74.6877L68.2051 74.8553L67.9437 75.0201L67.6792 75.1822L67.4116 75.3415L67.1409 75.4982L66.867 75.6522L66.5898 75.8034L66.3095 75.952L66.0259 76.0979L65.739 76.241L65.4488 76.3815L65.1552 76.5193L64.8582 76.6544L64.5577 76.7868L64.2537 76.9165L63.9462 77.0435L63.6351 77.1679L63.3203 77.2896L63.0018 77.4086L62.6796 77.5249L62.3535 77.6385L62.0235 77.7495L61.6895 77.8577L61.3514 77.9633L61.0092 78.0663L60.6627 78.1665L60.3119 78.2641L59.9566 78.359L59.5968 78.4513L59.2323 78.5409L58.8629 78.6278L58.4886 78.712L58.1092 78.7936L57.7245 78.8724L57.3343 78.9487L56.9384 79.0222L56.5366 79.0931L56.1287 79.1613L55.7144 79.2269L55.2934 79.2898L54.8653 79.35L54.4299 79.4075L53.9867 79.4624L53.5353 79.5146L53.0751 79.5642L52.6056 79.6111L52.126 79.6553L51.6358 79.6968L51.1338 79.7357L50.6192 79.7719L50.0907 79.8055L49.5468 79.8363L48.9857 79.8645L48.4051 79.8901L47.8023 79.913L47.1736 79.9332L46.5141 79.9507L45.8168 79.9656L45.0715 79.9778L44.2616 79.9874L43.3568 79.9942L42.2859 79.9985L40.6757 80L38.5753 79.9989L37.4637 79.9951L36.5391 79.9886L35.7167 79.9795L34.9624 79.9677L34.2583 79.9533L33.5932 79.9361L32.96 79.9164L32.3533 79.8939L31.7695 79.8688L31.2054 79.841L30.6589 79.8105L30.128 79.7774L29.6113 79.7416L29.1074 79.7032L28.6153 79.6621L28.1341 79.6183L27.6631 79.5718L27.2014 79.5227L26.7486 79.4709L26.3042 79.4165L25.8675 79.3593L25.4383 79.2995L25.0162 79.2371L24.6009 79.172L24.192 79.1042L23.7892 79.0337L23.3924 78.9606L23.0013 78.8848L22.6158 78.8063L22.2355 78.7252L21.8604 78.6414L21.4903 78.5549L21.125 78.4657L20.7644 78.3739L20.4084 78.2794L20.0569 78.1823L19.7098 78.0824L19.3669 77.9799L19.0281 77.8747L18.6935 77.7669L18.3629 77.6564L18.0361 77.5432L17.7133 77.4273L17.3942 77.3087L17.0788 77.1875L16.7671 77.0635L16.459 76.9369L16.1545 76.8076L15.8535 76.6757L15.5559 76.541L15.2618 76.4036L14.971 76.2636L14.6836 76.1208L14.3995 75.9754L14.1186 75.8273L13.841 75.6765L13.5666 75.5229L13.2953 75.3667L13.0272 75.2077L12.7623 75.0461L12.5004 74.8817L12.2416 74.7146L11.9858 74.5448L11.7331 74.3722L11.4834 74.1969L11.2367 74.0189L10.9929 73.8382L10.7521 73.6547L10.5143 73.4684L10.2794 73.2794L10.0473 73.0876L9.81821 72.8931L9.59198 72.6958L9.36861 72.4957L9.14811 72.2928L8.93045 72.0871L8.71563 71.8786L8.50364 71.6673L8.29447 71.4531L8.0881 71.2362L7.88454 71.0163L7.68377 70.7936L7.48579 70.5681L7.29058 70.3397L7.09815 70.1083L6.90848 69.8741L6.72157 69.637L6.53741 69.3969L6.356 69.1538L6.17733 68.9078L6.0014 68.6588L5.8282 68.4068L5.65773 68.1518L5.48998 67.8937L5.32496 67.6326L5.16265 67.3683L5.00305 67.101L4.84616 66.8305L4.69198 66.5569L4.5405 66.28L4.39173 65.9999L4.24565 65.7166L4.10227 65.4299L3.96158 65.14L3.82358 64.8466L3.68828 64.5499L3.55566 64.2497L3.42572 63.946L3.29848 63.6388L3.17391 63.328L3.05203 63.0135L2.93282 62.6953L2.8163 62.3733L2.70245 62.0475L2.59128 61.7178L2.48278 61.3842L2.37697 61.0464L2.27382 60.7045L2.17335 60.3584L2.07555 60.0079L1.98042 59.653L1.88797 59.2936L1.79818 58.9294L1.71107 58.5605L1.62662 58.1866L1.54485 57.8075L1.46574 57.4233L1.38931 57.0335L1.31554 56.6381L1.24444 56.2368L1.17601 55.8294L1.11024 55.4156L1.04715 54.9951L0.98672 54.5677L0.928959 54.1328L0.873866 53.6903L0.821439 53.2395L0.77168 52.78L0.724587 52.3113L0.680162 51.8326L0.638403 51.3432L0.599311 50.8422L0.562886 50.3287L0.529128 49.8013L0.498037 49.2587L0.469612 48.699L0.443854 48.1201L0.420762 47.5192L0.400338 46.8927L0.38258 46.2358L0.367488 45.5418L0.355063 44.8009L0.345305 43.997L0.338214 43.1015L0.333789 42.0488L0.332031 40.5455L0.33294 38.3461L0.336515 37.2115L0.342757 36.2763L0.351666 35.4473L0.363241 34.6884L0.377483 33.9807L0.394392 33.3129L0.413967 32.6773L0.436209 32.0687L0.461118 31.4831L0.488693 30.9176L0.518935 30.3697L0.551844 29.8377L0.587419 29.3199L0.625662 28.815L0.666571 28.322L0.710147 27.84L0.75639 27.3682L0.8053 26.9058L0.856877 26.4523L0.911121 26.0072L0.968032 25.57L1.02761 25.1402L1.08986 24.7175L1.15477 24.3017L1.22235 23.8922L1.2926 23.489L1.36552 23.0918L1.44111 22.7002L1.51936 22.3142L1.60029 21.9335L1.68388 21.558L1.77014 21.1875L1.85908 20.8218L1.95068 20.4609L2.04496 20.1046L2.14191 19.7527L2.24153 19.4052L2.34382 19.062L2.44879 18.7229L2.55643 18.3879L2.66675 18.057L2.77974 17.7299L2.89541 17.4068L3.01376 17.0874L3.13479 16.7717L3.25851 16.4598L3.3849 16.1514L3.51398 15.8466L3.64574 15.5453L3.78019 15.2474L3.91733 14.953L4.05716 14.662L4.19969 14.3743L4.3449 14.0899L4.49282 13.8088L4.64344 13.5309L4.79676 13.2563L4.95278 12.9848L5.11152 12.7164L5.27296 12.4512L5.43712 12.1891L5.604 11.93L5.77361 11.674L5.94593 11.4211L6.121 11.1711L6.29879 10.9241L6.47933 10.6802L6.66261 10.4391L6.84864 10.201L7.03743 9.96589L7.22899 9.73364L7.42331 9.50429L7.62041 9.27782L7.82029 9.05423L8.02296 8.83349L8.22843 8.61561L8.43671 8.40057L8.6478 8.18835L8.86172 7.97895L9.07847 7.77237L9.29807 7.56858L9.52052 7.36759L9.74584 7.16938L9.97404 6.97396L10.2051 6.7813L10.4391 6.59141L10.6761 6.40428L10.9159 6.21991L11.1587 6.03828L11.4045 5.85939L11.6532 5.68324L11.905 5.50982L12.1598 5.33914L12.4176 5.17117L12.6785 5.00593L12.9425 4.8434L13.2096 4.68359L13.4798 4.52649L13.7532 4.37209L14.0298 4.2204L14.3097 4.0714L14.5927 3.92511L14.8791 3.78152L15.1688 3.64061L15.4619 3.5024L15.7583 3.36688L16.0583 3.23405L16.3617 3.1039L16.6686 2.97644L16.9791 2.85166L17.2933 2.72956L17.6112 2.61014L17.9329 2.49341L18.2584 2.37935L18.5878 2.26796L18.9211 2.15925L19.2585 2.05322L19.6001 1.94986L19.9459 1.84918L20.296 1.75117L20.6505 1.65583L21.0096 1.56316L21.3734 1.47316L21.742 1.38583L22.1155 1.30118L22.4941 1.21919L22.8779 1.13987L23.2672 1.06322L23.6622 0.989243L24.063 0.917931L24.4699 0.849287L24.8832 0.783311L25.3031 0.720002L25.73 0.659361L26.1642 0.601388L26.6062 0.546082L27.0563 0.493443L27.515 0.443471L27.983 0.396166L28.4609 0.351529L28.9494 0.309557L29.4494 0.270253L29.9619 0.233616L30.4882 0.199645L31.0295 0.168341L31.5878 0.139704L32.165 0.113734L32.7641 0.0904299L33.3883 0.0697929L34.0426 0.0518224L34.7333 0.0365187L35.4701 0.0238816L36.2681 0.0139112L37.1547 0.00660746L38.1904 0.0019704L39.6172 0L41.8797 0.000696273L43.0395 0.00405921L43.9858 0.0100888L44.8216 0.0187851L45.5852 0.0301481L46.2965 0.0441777L46.9672 0.060874L47.6051 0.0802369L48.2157 0.102267L48.803 0.126963L49.37 0.154326L49.9192 0.184356L50.4525 0.217052L50.9714 0.252415L51.4772 0.290445L51.9711 0.331142L52.4539 0.374506L52.9266 0.420536L53.3897 0.469234L53.8438 0.520599L54.2896 0.57463L54.7275 0.631329L55.1578 0.690696L55.581 0.752729L55.9974 0.817431L56.4074 0.8848L56.8111 0.954837L57.2088 1.02754L57.6008 1.10292L57.9872 1.18096L58.3683 1.26167L58.7442 1.34505L59.1152 1.4311L59.4812 1.51983L59.8425 1.61122L60.1992 1.70528L60.5514 1.80202L60.8993 1.90142L61.2428 2.0035L61.5822 2.10826L61.9175 2.21569L62.2488 2.32579L62.5761 2.43857L62.8996 2.55403L63.2193 2.67217L63.5352 2.79299L63.8475 2.91648L64.1562 3.04266L64.4613 3.17153L64.7628 3.30308L65.0609 3.43731L65.3556 3.57424L65.6469 3.71386L65.9349 3.85617L66.2195 4.00117L66.5009 4.14887L66.779 4.29927L67.054 4.45238L67.3257 4.60819L67.5943 4.76671L67.8598 4.92794L68.1221 5.09188L68.3814 5.25854L68.6377 5.42793L68.8909 5.60004L69.1411 5.77488L69.3883 5.95246L69.6325 6.13278L69.8737 6.31585L70.1121 6.50166L70.3475 6.69023L70.5799 6.88156L70.8095 7.07566L71.0362 7.27254L71.26 7.4722L71.481 7.67465L71.6991 7.8799L71.9144 8.08795L72.1268 8.29882L72.3364 8.51251L72.5432 8.72903L72.7473 8.94841L72.9485 9.17063L73.1469 9.39572L73.3425 9.62369L73.5354 9.85456L73.7255 10.0883L73.9129 10.325L74.0975 10.5646L74.2793 10.8072L74.4584 11.0527L74.6348 11.3013L74.8084 11.5528L74.9793 11.8073L75.1475 12.0649L75.313 12.3256L75.4757 12.5893L75.6357 12.8561L75.7931 13.1261L75.9477 13.3993L76.0996 13.6756L76.2488 13.9552L76.3953 14.238L76.5391 14.5241L76.6802 14.8136L76.8186 15.1063L76.9544 15.4025L77.0874 15.7022L77.2178 16.0053L77.3455 16.312L77.4705 16.6222L77.5928 16.9361L77.7124 17.2537L77.8294 17.5751L77.9436 17.9002L78.0552 18.2293L78.1641 18.5624L78.2704 18.8994L78.374 19.2407L78.4749 19.5861L78.5731 19.9359L78.6686 20.2901L78.7615 20.6488L78.8517 21.0122L78.9393 21.3804L79.0241 21.7535L79.1063 22.1317L79.1859 22.5151L79.2627 22.904L79.3369 23.2985L79.4084 23.6988L79.4773 24.1052L79.5435 24.518L79.607 24.9374L79.6679 25.3637L79.7261 25.7973L79.7816 26.2386L79.8344 26.6881L79.8846 27.1461L79.9321 27.6134L79.977 28.0904L80.0192 28.5781L80.0587 29.0771L80.0955 29.5886L80.1297 30.1137L80.1612 30.6538L80.1901 31.2106L80.2163 31.7863L80.2398 32.3834L80.2606 33.0056L80.2788 33.6572L80.2943 34.3447L80.3072 35.0774L80.3174 35.8698L80.3249 36.7478L80.3297 37.7675L80.3319 39.134L80.332 40Z"/>
</mask>
<path fillRule="evenodd" clipRule="evenodd" d="M80.332 40L80.3307 41.8566L80.3267 42.9471L80.32 43.8615L80.3107 44.6776L80.2987 45.4273L80.284 46.128L80.2667 46.7903L80.2467 47.4212L80.224 48.0259L80.1987 48.6081L80.1707 49.1707L80.14 49.7159L80.1067 50.2456L80.0707 50.7613L80.032 51.2642L79.9907 51.7554L79.9467 52.2357L79.9 52.706L79.8507 53.1669L79.7987 53.619L79.744 54.0629L79.6867 54.4989L79.6267 54.9275L79.564 55.3491L79.4987 55.7639L79.4307 56.1723L79.36 56.5746L79.2867 56.9709L79.2106 57.3616L79.132 57.7467L79.0506 58.1266L78.9666 58.5013L78.8799 58.871L78.7905 59.2359L78.6985 59.5961L78.6038 59.9517L78.5064 60.3029L78.4064 60.6497L78.3037 60.9923L78.1983 61.3307L78.0902 61.665L77.9795 61.9953L77.866 62.3217L77.7499 62.6443L77.6312 62.9631L77.5097 63.2781L77.3856 63.5895L77.2588 63.8973L77.1292 64.2016L76.9971 64.5023L76.8622 64.7996L76.7246 65.0935L76.5844 65.384L76.4414 65.6711L76.2958 65.955L76.1474 66.2356L75.9964 66.513L75.8426 66.7871L75.6861 67.0581L75.527 67.326L75.3651 67.5907L75.2005 67.8523L75.0332 68.1109L74.8632 68.3664L74.6904 68.6189L74.5149 68.8684L74.3367 69.1148L74.1557 69.3584L73.972 69.5989L73.7855 69.8365L73.5963 70.0712L73.4043 70.303L73.2095 70.5319L73.012 70.7579L72.8117 70.981L72.6085 71.2013L72.4026 71.4188L72.1939 71.6334L71.9824 71.8451L71.768 72.0541L71.5508 72.2602L71.3307 72.4635L71.1078 72.6641L70.882 72.8619L70.6534 73.0568L70.4218 73.2491L70.1874 73.4385L69.95 73.6252L69.7097 73.8091L69.4664 73.9903L69.2201 74.1688L68.9709 74.3445L68.7187 74.5175L68.4634 74.6877L68.2051 74.8553L67.9437 75.0201L67.6792 75.1822L67.4116 75.3415L67.1409 75.4982L66.867 75.6522L66.5898 75.8034L66.3095 75.952L66.0259 76.0979L65.739 76.241L65.4488 76.3815L65.1552 76.5193L64.8582 76.6544L64.5577 76.7868L64.2537 76.9165L63.9462 77.0435L63.6351 77.1679L63.3203 77.2896L63.0018 77.4086L62.6796 77.5249L62.3535 77.6385L62.0235 77.7495L61.6895 77.8577L61.3514 77.9633L61.0092 78.0663L60.6627 78.1665L60.3119 78.2641L59.9566 78.359L59.5968 78.4513L59.2323 78.5409L58.8629 78.6278L58.4886 78.712L58.1092 78.7936L57.7245 78.8724L57.3343 78.9487L56.9384 79.0222L56.5366 79.0931L56.1287 79.1613L55.7144 79.2269L55.2934 79.2898L54.8653 79.35L54.4299 79.4075L53.9867 79.4624L53.5353 79.5146L53.0751 79.5642L52.6056 79.6111L52.126 79.6553L51.6358 79.6968L51.1338 79.7357L50.6192 79.7719L50.0907 79.8055L49.5468 79.8363L48.9857 79.8645L48.4051 79.8901L47.8023 79.913L47.1736 79.9332L46.5141 79.9507L45.8168 79.9656L45.0715 79.9778L44.2616 79.9874L43.3568 79.9942L42.2859 79.9985L40.6757 80L38.5753 79.9989L37.4637 79.9951L36.5391 79.9886L35.7167 79.9795L34.9624 79.9677L34.2583 79.9533L33.5932 79.9361L32.96 79.9164L32.3533 79.8939L31.7695 79.8688L31.2054 79.841L30.6589 79.8105L30.128 79.7774L29.6113 79.7416L29.1074 79.7032L28.6153 79.6621L28.1341 79.6183L27.6631 79.5718L27.2014 79.5227L26.7486 79.4709L26.3042 79.4165L25.8675 79.3593L25.4383 79.2995L25.0162 79.2371L24.6009 79.172L24.192 79.1042L23.7892 79.0337L23.3924 78.9606L23.0013 78.8848L22.6158 78.8063L22.2355 78.7252L21.8604 78.6414L21.4903 78.5549L21.125 78.4657L20.7644 78.3739L20.4084 78.2794L20.0569 78.1823L19.7098 78.0824L19.3669 77.9799L19.0281 77.8747L18.6935 77.7669L18.3629 77.6564L18.0361 77.5432L17.7133 77.4273L17.3942 77.3087L17.0788 77.1875L16.7671 77.0635L16.459 76.9369L16.1545 76.8076L15.8535 76.6757L15.5559 76.541L15.2618 76.4036L14.971 76.2636L14.6836 76.1208L14.3995 75.9754L14.1186 75.8273L13.841 75.6765L13.5666 75.5229L13.2953 75.3667L13.0272 75.2077L12.7623 75.0461L12.5004 74.8817L12.2416 74.7146L11.9858 74.5448L11.7331 74.3722L11.4834 74.1969L11.2367 74.0189L10.9929 73.8382L10.7521 73.6547L10.5143 73.4684L10.2794 73.2794L10.0473 73.0876L9.81821 72.8931L9.59198 72.6958L9.36861 72.4957L9.14811 72.2928L8.93045 72.0871L8.71563 71.8786L8.50364 71.6673L8.29447 71.4531L8.0881 71.2362L7.88454 71.0163L7.68377 70.7936L7.48579 70.5681L7.29058 70.3397L7.09815 70.1083L6.90848 69.8741L6.72157 69.637L6.53741 69.3969L6.356 69.1538L6.17733 68.9078L6.0014 68.6588L5.8282 68.4068L5.65773 68.1518L5.48998 67.8937L5.32496 67.6326L5.16265 67.3683L5.00305 67.101L4.84616 66.8305L4.69198 66.5569L4.5405 66.28L4.39173 65.9999L4.24565 65.7166L4.10227 65.4299L3.96158 65.14L3.82358 64.8466L3.68828 64.5499L3.55566 64.2497L3.42572 63.946L3.29848 63.6388L3.17391 63.328L3.05203 63.0135L2.93282 62.6953L2.8163 62.3733L2.70245 62.0475L2.59128 61.7178L2.48278 61.3842L2.37697 61.0464L2.27382 60.7045L2.17335 60.3584L2.07555 60.0079L1.98042 59.653L1.88797 59.2936L1.79818 58.9294L1.71107 58.5605L1.62662 58.1866L1.54485 57.8075L1.46574 57.4233L1.38931 57.0335L1.31554 56.6381L1.24444 56.2368L1.17601 55.8294L1.11024 55.4156L1.04715 54.9951L0.98672 54.5677L0.928959 54.1328L0.873866 53.6903L0.821439 53.2395L0.77168 52.78L0.724587 52.3113L0.680162 51.8326L0.638403 51.3432L0.599311 50.8422L0.562886 50.3287L0.529128 49.8013L0.498037 49.2587L0.469612 48.699L0.443854 48.1201L0.420762 47.5192L0.400338 46.8927L0.38258 46.2358L0.367488 45.5418L0.355063 44.8009L0.345305 43.997L0.338214 43.1015L0.333789 42.0488L0.332031 40.5455L0.33294 38.3461L0.336515 37.2115L0.342757 36.2763L0.351666 35.4473L0.363241 34.6884L0.377483 33.9807L0.394392 33.3129L0.413967 32.6773L0.436209 32.0687L0.461118 31.4831L0.488693 30.9176L0.518935 30.3697L0.551844 29.8377L0.587419 29.3199L0.625662 28.815L0.666571 28.322L0.710147 27.84L0.75639 27.3682L0.8053 26.9058L0.856877 26.4523L0.911121 26.0072L0.968032 25.57L1.02761 25.1402L1.08986 24.7175L1.15477 24.3017L1.22235 23.8922L1.2926 23.489L1.36552 23.0918L1.44111 22.7002L1.51936 22.3142L1.60029 21.9335L1.68388 21.558L1.77014 21.1875L1.85908 20.8218L1.95068 20.4609L2.04496 20.1046L2.14191 19.7527L2.24153 19.4052L2.34382 19.062L2.44879 18.7229L2.55643 18.3879L2.66675 18.057L2.77974 17.7299L2.89541 17.4068L3.01376 17.0874L3.13479 16.7717L3.25851 16.4598L3.3849 16.1514L3.51398 15.8466L3.64574 15.5453L3.78019 15.2474L3.91733 14.953L4.05716 14.662L4.19969 14.3743L4.3449 14.0899L4.49282 13.8088L4.64344 13.5309L4.79676 13.2563L4.95278 12.9848L5.11152 12.7164L5.27296 12.4512L5.43712 12.1891L5.604 11.93L5.77361 11.674L5.94593 11.4211L6.121 11.1711L6.29879 10.9241L6.47933 10.6802L6.66261 10.4391L6.84864 10.201L7.03743 9.96589L7.22899 9.73364L7.42331 9.50429L7.62041 9.27782L7.82029 9.05423L8.02296 8.83349L8.22843 8.61561L8.43671 8.40057L8.6478 8.18835L8.86172 7.97895L9.07847 7.77237L9.29807 7.56858L9.52052 7.36759L9.74584 7.16938L9.97404 6.97396L10.2051 6.7813L10.4391 6.59141L10.6761 6.40428L10.9159 6.21991L11.1587 6.03828L11.4045 5.85939L11.6532 5.68324L11.905 5.50982L12.1598 5.33914L12.4176 5.17117L12.6785 5.00593L12.9425 4.8434L13.2096 4.68359L13.4798 4.52649L13.7532 4.37209L14.0298 4.2204L14.3097 4.0714L14.5927 3.92511L14.8791 3.78152L15.1688 3.64061L15.4619 3.5024L15.7583 3.36688L16.0583 3.23405L16.3617 3.1039L16.6686 2.97644L16.9791 2.85166L17.2933 2.72956L17.6112 2.61014L17.9329 2.49341L18.2584 2.37935L18.5878 2.26796L18.9211 2.15925L19.2585 2.05322L19.6001 1.94986L19.9459 1.84918L20.296 1.75117L20.6505 1.65583L21.0096 1.56316L21.3734 1.47316L21.742 1.38583L22.1155 1.30118L22.4941 1.21919L22.8779 1.13987L23.2672 1.06322L23.6622 0.989243L24.063 0.917931L24.4699 0.849287L24.8832 0.783311L25.3031 0.720002L25.73 0.659361L26.1642 0.601388L26.6062 0.546082L27.0563 0.493443L27.515 0.443471L27.983 0.396166L28.4609 0.351529L28.9494 0.309557L29.4494 0.270253L29.9619 0.233616L30.4882 0.199645L31.0295 0.168341L31.5878 0.139704L32.165 0.113734L32.7641 0.0904299L33.3883 0.0697929L34.0426 0.0518224L34.7333 0.0365187L35.4701 0.0238816L36.2681 0.0139112L37.1547 0.00660746L38.1904 0.0019704L39.6172 0L41.8797 0.000696273L43.0395 0.00405921L43.9858 0.0100888L44.8216 0.0187851L45.5852 0.0301481L46.2965 0.0441777L46.9672 0.060874L47.6051 0.0802369L48.2157 0.102267L48.803 0.126963L49.37 0.154326L49.9192 0.184356L50.4525 0.217052L50.9714 0.252415L51.4772 0.290445L51.9711 0.331142L52.4539 0.374506L52.9266 0.420536L53.3897 0.469234L53.8438 0.520599L54.2896 0.57463L54.7275 0.631329L55.1578 0.690696L55.581 0.752729L55.9974 0.817431L56.4074 0.8848L56.8111 0.954837L57.2088 1.02754L57.6008 1.10292L57.9872 1.18096L58.3683 1.26167L58.7442 1.34505L59.1152 1.4311L59.4812 1.51983L59.8425 1.61122L60.1992 1.70528L60.5514 1.80202L60.8993 1.90142L61.2428 2.0035L61.5822 2.10826L61.9175 2.21569L62.2488 2.32579L62.5761 2.43857L62.8996 2.55403L63.2193 2.67217L63.5352 2.79299L63.8475 2.91648L64.1562 3.04266L64.4613 3.17153L64.7628 3.30308L65.0609 3.43731L65.3556 3.57424L65.6469 3.71386L65.9349 3.85617L66.2195 4.00117L66.5009 4.14887L66.779 4.29927L67.054 4.45238L67.3257 4.60819L67.5943 4.76671L67.8598 4.92794L68.1221 5.09188L68.3814 5.25854L68.6377 5.42793L68.8909 5.60004L69.1411 5.77488L69.3883 5.95246L69.6325 6.13278L69.8737 6.31585L70.1121 6.50166L70.3475 6.69023L70.5799 6.88156L70.8095 7.07566L71.0362 7.27254L71.26 7.4722L71.481 7.67465L71.6991 7.8799L71.9144 8.08795L72.1268 8.29882L72.3364 8.51251L72.5432 8.72903L72.7473 8.94841L72.9485 9.17063L73.1469 9.39572L73.3425 9.62369L73.5354 9.85456L73.7255 10.0883L73.9129 10.325L74.0975 10.5646L74.2793 10.8072L74.4584 11.0527L74.6348 11.3013L74.8084 11.5528L74.9793 11.8073L75.1475 12.0649L75.313 12.3256L75.4757 12.5893L75.6357 12.8561L75.7931 13.1261L75.9477 13.3993L76.0996 13.6756L76.2488 13.9552L76.3953 14.238L76.5391 14.5241L76.6802 14.8136L76.8186 15.1063L76.9544 15.4025L77.0874 15.7022L77.2178 16.0053L77.3455 16.312L77.4705 16.6222L77.5928 16.9361L77.7124 17.2537L77.8294 17.5751L77.9436 17.9002L78.0552 18.2293L78.1641 18.5624L78.2704 18.8994L78.374 19.2407L78.4749 19.5861L78.5731 19.9359L78.6686 20.2901L78.7615 20.6488L78.8517 21.0122L78.9393 21.3804L79.0241 21.7535L79.1063 22.1317L79.1859 22.5151L79.2627 22.904L79.3369 23.2985L79.4084 23.6988L79.4773 24.1052L79.5435 24.518L79.607 24.9374L79.6679 25.3637L79.7261 25.7973L79.7816 26.2386L79.8344 26.6881L79.8846 27.1461L79.9321 27.6134L79.977 28.0904L80.0192 28.5781L80.0587 29.0771L80.0955 29.5886L80.1297 30.1137L80.1612 30.6538L80.1901 31.2106L80.2163 31.7863L80.2398 32.3834L80.2606 33.0056L80.2788 33.6572L80.2943 34.3447L80.3072 35.0774L80.3174 35.8698L80.3249 36.7478L80.3297 37.7675L80.3319 39.134L80.332 40Z" stroke="#0077D5" strokeWidth="3.37374" mask="url(#path-1-inside-1_4436_39732)"/>
<path d="M56.6664 20H35.6166C35.1988 20 34.8118 20.1742 34.54 20.4453C34.5395 20.4458 34.5389 20.4462 34.5384 20.4467L24.599 30.3863C24.5986 30.3868 24.5981 30.3873 24.5977 30.3879C24.3092 30.677 24.1523 31.0742 24.1523 31.4645V60.1423C24.1523 60.9842 24.8349 61.6667 25.6768 61.6667H56.6665C57.5084 61.6667 58.1909 60.9842 58.1909 60.1423V21.5244C58.1908 20.6825 57.5083 20 56.6664 20ZM34.698 36.2824H47.6449C48.4868 36.2824 49.1694 36.9649 49.1694 37.8068C49.1694 38.6487 48.4868 39.3312 47.6449 39.3312H34.698C33.8561 39.3312 33.1736 38.6487 33.1736 37.8068C33.1736 36.9649 33.8561 36.2824 34.698 36.2824ZM34.0922 25.2046V29.94H29.3568L34.0922 25.2046ZM50.0723 52.3001H32.2707C31.4288 52.3001 30.7463 51.6176 30.7463 50.7757C30.7463 49.9338 31.4288 49.2513 32.2707 49.2513H50.0723C50.9141 49.2513 51.5967 49.9338 51.5967 50.7757C51.5967 51.6176 50.9141 52.3001 50.0723 52.3001ZM50.0723 46.9609H32.2707C31.4288 46.9609 30.7463 46.2783 30.7463 45.4364C30.7463 44.5946 31.4288 43.912 32.2707 43.912H50.0723C50.9141 43.912 51.5967 44.5946 51.5967 45.4364C51.5967 46.2783 50.9141 46.9609 50.0723 46.9609Z" fill="#0077D5"/>
</svg>
